<?xml version="1.0" encoding="utf-8"?>
<!-- Generator: Adobe Illustrator 23.0.1, SVG Export Plug-In . SVG Version: 6.00 Build 0)  -->
<svg version="1.1" id="圖層_1" xmlns="http://www.w3.org/2000/svg" xmlns:xlink="http://www.w3.org/1999/xlink" x="0px" y="0px"
	 viewBox="0 0 1756.5 542.7" style="enable-background:new 0 0 1756.5 542.7;" xml:space="preserve">
<style type="text/css">
	.st0{fill:none;stroke:#DCF9F8;stroke-width:2.41;stroke-miterlimit:10;}
	.st1{fill:#3C3C3B;}
	.st2{fill:#575756;}
	.st3{fill:#868686;}
	.st4{fill:#C39E6F;}
	.st5{fill:#BCBBAC;}
	.st6{fill:#ECECEC;}
	.st7{fill:none;}
	.st8{fill:none;stroke:#1E8F94;stroke-width:2.4329;stroke-miterlimit:10;}
	.st9{fill:none;stroke:#1E8F94;stroke-width:2.4127;stroke-miterlimit:10;}
	.st10{fill:none;stroke:#B2B2B2;stroke-width:1.2114;stroke-miterlimit:10;}
	.st11{fill:none;stroke:#FF521F;stroke-width:3;stroke-miterlimit:10;stroke-dasharray:4.896,4.896;}
	.st12{fill:none;stroke:#FF521F;stroke-width:1.7666;stroke-miterlimit:10;stroke-dasharray:7.1371,7.1371;}
	.st13{fill:#FF521F;}
	.st14{fill:none;stroke:#FF521F;stroke-width:3;stroke-miterlimit:10;stroke-dasharray:7.8134,7.8134;}
	.st15{fill:none;stroke:#FF521F;stroke-width:3;stroke-miterlimit:10;stroke-dasharray:5.421,5.421;}
	.st16{fill:#B2B2B2;stroke:#FF521F;stroke-width:1.0095;stroke-miterlimit:10;}
	.st17{fill:none;stroke:#FF521F;stroke-width:3;stroke-miterlimit:10;stroke-dasharray:4.8556,4.8556;}
	.st18{font-family:'OpenSans';}
	.st19{font-size:41.1303px;}
	.st20{fill:none;stroke:#B5BCBC;stroke-width:2.41;stroke-miterlimit:10;}
	.st21{fill:#1E8F94;}
	.st22{opacity:0.62;fill:#1EDDCF;enable-background:new    ;}
	.st23{opacity:0.64;fill:#118F94;enable-background:new    ;}
	.st24{fill:#F2F2FC;}
	.st25{fill:#D8D8FC;}
	.st26{fill:#1EDDCF;}
	.st27{fill:#118F94;}
</style>
<g>
	<rect x="1.2" y="1.2" class="st0" width="68.3" height="68.3"/>
	<rect x="68.6" y="1.2" class="st0" width="68.3" height="68.3"/>
	<rect x="136.1" y="1.2" class="st0" width="68.3" height="68.3"/>
	<rect x="203.5" y="1.2" class="st0" width="68.3" height="68.3"/>
	<rect x="271" y="1.2" class="st0" width="68.3" height="68.3"/>
	<rect x="338.4" y="1.2" class="st0" width="68.3" height="68.3"/>
	<rect x="405.8" y="1.2" class="st0" width="68.3" height="68.3"/>
	<rect x="473.2" y="1.2" class="st0" width="68.3" height="68.3"/>
	<rect x="540.7" y="1.2" class="st0" width="68.3" height="68.3"/>
	<rect x="608.1" y="1.2" class="st0" width="68.3" height="68.3"/>
	<rect x="675.5" y="1.2" class="st0" width="68.3" height="68.3"/>
	<rect x="743" y="1.2" class="st0" width="68.3" height="68.3"/>
	<rect x="810.4" y="1.2" class="st0" width="68.3" height="68.3"/>
	<rect x="877.8" y="1.2" class="st0" width="68.3" height="68.3"/>
	<rect x="945.3" y="1.2" class="st0" width="68.3" height="68.3"/>
	<rect x="1012.7" y="1.2" class="st0" width="68.3" height="68.3"/>
	<rect x="1080.2" y="1.2" class="st0" width="68.3" height="68.3"/>
	<rect x="1147.6" y="1.2" class="st0" width="68.3" height="68.3"/>
	<rect x="1.2" y="68.6" class="st0" width="68.3" height="68.3"/>
	<rect x="68.6" y="68.6" class="st0" width="68.3" height="68.3"/>
	<rect x="136.1" y="68.6" class="st0" width="68.3" height="68.3"/>
	<rect x="203.5" y="68.6" class="st0" width="68.3" height="68.3"/>
	<rect x="271" y="68.6" class="st0" width="68.3" height="68.3"/>
	<rect x="338.4" y="68.6" class="st0" width="68.3" height="68.3"/>
	<rect x="405.8" y="68.6" class="st0" width="68.3" height="68.3"/>
	<rect x="473.2" y="68.6" class="st0" width="68.3" height="68.3"/>
	<rect x="540.7" y="68.6" class="st0" width="68.3" height="68.3"/>
	<rect x="608.1" y="68.6" class="st0" width="68.3" height="68.3"/>
	<rect x="675.5" y="68.6" class="st0" width="68.3" height="68.3"/>
	<rect x="743" y="68.6" class="st0" width="68.3" height="68.3"/>
	<rect x="810.4" y="68.6" class="st0" width="68.3" height="68.3"/>
	<rect x="877.8" y="68.6" class="st0" width="68.3" height="68.3"/>
	<rect x="945.3" y="68.6" class="st0" width="68.3" height="68.3"/>
	<rect x="1012.7" y="68.6" class="st0" width="68.3" height="68.3"/>
	<rect x="1080.2" y="68.6" class="st0" width="68.3" height="68.3"/>
	<rect x="1147.6" y="68.6" class="st0" width="68.3" height="68.3"/>
	<rect x="1.2" y="136.1" class="st0" width="68.3" height="68.3"/>
	<rect x="68.6" y="136.1" class="st0" width="68.3" height="68.3"/>
	<rect x="136.1" y="136.1" class="st0" width="68.3" height="68.3"/>
	<rect x="203.5" y="136.1" class="st0" width="68.3" height="68.3"/>
	<rect x="271" y="136.1" class="st0" width="68.3" height="68.3"/>
	<rect x="338.4" y="136.1" class="st0" width="68.3" height="68.3"/>
	<rect x="405.8" y="136.1" class="st0" width="68.3" height="68.3"/>
	<rect x="473.2" y="136.1" class="st0" width="68.3" height="68.3"/>
	<rect x="540.7" y="136.1" class="st0" width="68.3" height="68.3"/>
	<rect x="608.1" y="136.1" class="st0" width="68.3" height="68.3"/>
	<rect x="675.5" y="136.1" class="st0" width="68.3" height="68.3"/>
	<rect x="743" y="136.1" class="st0" width="68.3" height="68.3"/>
	<rect x="810.4" y="136.1" class="st0" width="68.3" height="68.3"/>
	<rect x="877.8" y="136.1" class="st0" width="68.3" height="68.3"/>
	<rect x="945.3" y="136.1" class="st0" width="68.3" height="68.3"/>
	<rect x="1012.7" y="136.1" class="st0" width="68.3" height="68.3"/>
	<rect x="1080.2" y="136.1" class="st0" width="68.3" height="68.3"/>
	<rect x="1147.6" y="136.1" class="st0" width="68.3" height="68.3"/>
	<rect x="1.2" y="203.5" class="st0" width="68.3" height="68.3"/>
	<rect x="68.6" y="203.5" class="st0" width="68.3" height="68.3"/>
	<rect x="136.1" y="203.5" class="st0" width="68.3" height="68.3"/>
	<rect x="203.5" y="203.5" class="st0" width="68.3" height="68.3"/>
	<rect x="271" y="203.5" class="st0" width="68.3" height="68.3"/>
	<rect x="338.4" y="203.5" class="st0" width="68.3" height="68.3"/>
	<rect x="405.8" y="203.5" class="st0" width="68.3" height="68.3"/>
	<rect x="473.2" y="203.5" class="st0" width="68.3" height="68.3"/>
	<rect x="540.7" y="203.5" class="st0" width="68.3" height="68.3"/>
	<rect x="608.1" y="203.5" class="st0" width="68.3" height="68.3"/>
	<rect x="675.5" y="203.5" class="st0" width="68.3" height="68.3"/>
	<rect x="743" y="203.5" class="st0" width="68.3" height="68.3"/>
	<rect x="810.4" y="203.5" class="st0" width="68.3" height="68.3"/>
	<rect x="877.8" y="203.5" class="st0" width="68.3" height="68.3"/>
	<rect x="945.3" y="203.5" class="st0" width="68.3" height="68.3"/>
	<rect x="1012.7" y="203.5" class="st0" width="68.3" height="68.3"/>
	<rect x="1080.2" y="203.5" class="st0" width="68.3" height="68.3"/>
	<rect x="1147.6" y="203.5" class="st0" width="68.3" height="68.3"/>
	<rect x="1.2" y="271" class="st0" width="68.3" height="68.3"/>
	<rect x="68.6" y="271" class="st0" width="68.3" height="68.3"/>
	<rect x="136.1" y="271" class="st0" width="68.3" height="68.3"/>
	<rect x="203.5" y="271" class="st0" width="68.3" height="68.3"/>
	<rect x="271" y="271" class="st0" width="68.3" height="68.3"/>
	<rect x="338.4" y="271" class="st0" width="68.3" height="68.3"/>
	<rect x="405.8" y="271" class="st0" width="68.3" height="68.3"/>
	<rect x="473.2" y="271" class="st0" width="68.3" height="68.3"/>
	<rect x="540.7" y="271" class="st0" width="68.3" height="68.3"/>
	<rect x="608.1" y="271" class="st0" width="68.3" height="68.3"/>
	<rect x="675.5" y="271" class="st0" width="68.3" height="68.3"/>
	<rect x="743" y="271" class="st0" width="68.3" height="68.3"/>
	<rect x="810.4" y="271" class="st0" width="68.3" height="68.3"/>
	<rect x="877.8" y="271" class="st0" width="68.3" height="68.3"/>
	<rect x="945.3" y="271" class="st0" width="68.3" height="68.3"/>
	<rect x="1012.7" y="271" class="st0" width="68.3" height="68.3"/>
	<rect x="1080.2" y="271" class="st0" width="68.3" height="68.3"/>
	<rect x="1147.6" y="271" class="st0" width="68.3" height="68.3"/>
	<rect x="1.2" y="338.4" class="st0" width="68.3" height="68.3"/>
	<rect x="68.6" y="338.4" class="st0" width="68.3" height="68.3"/>
	<rect x="136.1" y="338.4" class="st0" width="68.3" height="68.3"/>
	<rect x="203.5" y="338.4" class="st0" width="68.3" height="68.3"/>
	<rect x="271" y="338.4" class="st0" width="68.3" height="68.3"/>
	<rect x="338.4" y="338.4" class="st0" width="68.3" height="68.3"/>
	<rect x="405.8" y="338.4" class="st0" width="68.3" height="68.3"/>
	<rect x="473.2" y="338.4" class="st0" width="68.3" height="68.3"/>
	<rect x="540.7" y="338.4" class="st0" width="68.3" height="68.3"/>
	<rect x="608.1" y="338.4" class="st0" width="68.3" height="68.3"/>
	<rect x="675.5" y="338.4" class="st0" width="68.3" height="68.3"/>
	<rect x="743" y="338.4" class="st0" width="68.3" height="68.3"/>
	<rect x="810.4" y="338.4" class="st0" width="68.3" height="68.3"/>
	<rect x="877.8" y="338.4" class="st0" width="68.3" height="68.3"/>
	<rect x="945.3" y="338.4" class="st0" width="68.3" height="68.3"/>
	<rect x="1012.7" y="338.4" class="st0" width="68.3" height="68.3"/>
	<rect x="1080.2" y="338.4" class="st0" width="68.3" height="68.3"/>
	<rect x="1147.6" y="338.4" class="st0" width="68.3" height="68.3"/>
	<rect x="1.2" y="405.8" class="st0" width="68.3" height="68.3"/>
	<rect x="68.6" y="405.8" class="st0" width="68.3" height="68.3"/>
	<rect x="136.1" y="405.8" class="st0" width="68.3" height="68.3"/>
	<rect x="203.5" y="405.8" class="st0" width="68.3" height="68.3"/>
	<rect x="271" y="405.8" class="st0" width="68.3" height="68.3"/>
	<rect x="338.4" y="405.8" class="st0" width="68.3" height="68.3"/>
	<rect x="405.8" y="405.8" class="st0" width="68.3" height="68.3"/>
	<rect x="473.2" y="405.8" class="st0" width="68.3" height="68.3"/>
	<rect x="540.7" y="405.8" class="st0" width="68.3" height="68.3"/>
	<rect x="608.1" y="405.8" class="st0" width="68.3" height="68.3"/>
	<rect x="675.5" y="405.8" class="st0" width="68.3" height="68.3"/>
	<rect x="743" y="405.8" class="st0" width="68.3" height="68.3"/>
	<rect x="810.4" y="405.8" class="st0" width="68.3" height="68.3"/>
	<rect x="877.8" y="405.8" class="st0" width="68.3" height="68.3"/>
	<rect x="945.3" y="405.8" class="st0" width="68.3" height="68.3"/>
	<rect x="1012.7" y="405.8" class="st0" width="68.3" height="68.3"/>
	<rect x="1080.2" y="405.8" class="st0" width="68.3" height="68.3"/>
	<rect x="1147.6" y="405.8" class="st0" width="68.3" height="68.3"/>
	<rect x="1.2" y="473.2" class="st0" width="68.3" height="68.3"/>
	<rect x="68.6" y="473.2" class="st0" width="68.3" height="68.3"/>
	<rect x="136.1" y="473.2" class="st0" width="68.3" height="68.3"/>
	<rect x="203.5" y="473.2" class="st0" width="68.3" height="68.3"/>
	<rect x="271" y="473.2" class="st0" width="68.3" height="68.3"/>
	<rect x="338.4" y="473.2" class="st0" width="68.3" height="68.3"/>
	<rect x="405.8" y="473.2" class="st0" width="68.3" height="68.3"/>
	<rect x="473.2" y="473.2" class="st0" width="68.3" height="68.3"/>
	<rect x="540.7" y="473.2" class="st0" width="68.3" height="68.3"/>
	<rect x="608.1" y="473.2" class="st0" width="68.3" height="68.3"/>
	<rect x="675.5" y="473.2" class="st0" width="68.3" height="68.3"/>
	<rect x="743" y="473.2" class="st0" width="68.3" height="68.3"/>
	<rect x="810.4" y="473.2" class="st0" width="68.3" height="68.3"/>
	<rect x="877.8" y="473.2" class="st0" width="68.3" height="68.3"/>
	<rect x="945.3" y="473.2" class="st0" width="68.3" height="68.3"/>
	<rect x="1012.7" y="473.2" class="st0" width="68.3" height="68.3"/>
	<rect x="1080.2" y="473.2" class="st0" width="68.3" height="68.3"/>
	<rect x="1147.6" y="473.2" class="st0" width="68.3" height="68.3"/>
	<rect x="1215" y="1.2" class="st0" width="68.3" height="68.3"/>
	<rect x="1215" y="68.6" class="st0" width="68.3" height="68.3"/>
	<rect x="1215" y="136.1" class="st0" width="68.3" height="68.3"/>
	<rect x="1215" y="203.5" class="st0" width="68.3" height="68.3"/>
	<rect x="1215" y="271" class="st0" width="68.3" height="68.3"/>
	<rect x="1215" y="338.4" class="st0" width="68.3" height="68.3"/>
	<rect x="1215" y="405.8" class="st0" width="68.3" height="68.3"/>
	<rect x="1215" y="473.2" class="st0" width="68.3" height="68.3"/>
	<rect x="1282.4" y="1.2" class="st0" width="68.3" height="68.3"/>
	<rect x="1282.4" y="68.6" class="st0" width="68.3" height="68.3"/>
	<rect x="1282.4" y="136.1" class="st0" width="68.3" height="68.3"/>
	<rect x="1282.4" y="203.5" class="st0" width="68.3" height="68.3"/>
	<rect x="1282.4" y="271" class="st0" width="68.3" height="68.3"/>
	<rect x="1282.4" y="338.4" class="st0" width="68.3" height="68.3"/>
	<rect x="1282.4" y="405.8" class="st0" width="68.3" height="68.3"/>
	<rect x="1282.4" y="473.2" class="st0" width="68.3" height="68.3"/>
	<rect x="1349.9" y="1.2" class="st0" width="68.3" height="68.3"/>
	<rect x="1349.9" y="68.6" class="st0" width="68.3" height="68.3"/>
	<rect x="1349.9" y="136.1" class="st0" width="68.3" height="68.3"/>
	<rect x="1349.9" y="203.5" class="st0" width="68.3" height="68.3"/>
	<rect x="1349.9" y="271" class="st0" width="68.3" height="68.3"/>
	<rect x="1349.9" y="338.4" class="st0" width="68.3" height="68.3"/>
	<rect x="1349.9" y="405.8" class="st0" width="68.3" height="68.3"/>
	<rect x="1349.9" y="473.2" class="st0" width="68.3" height="68.3"/>
	<rect x="1417.3" y="1.2" class="st0" width="68.3" height="68.3"/>
	<rect x="1417.3" y="68.6" class="st0" width="68.3" height="68.3"/>
	<rect x="1417.3" y="136.1" class="st0" width="68.3" height="68.3"/>
	<rect x="1417.3" y="203.5" class="st0" width="68.3" height="68.3"/>
	<rect x="1417.3" y="271" class="st0" width="68.3" height="68.3"/>
	<rect x="1417.3" y="338.4" class="st0" width="68.3" height="68.3"/>
	<rect x="1417.3" y="405.8" class="st0" width="68.3" height="68.3"/>
	<rect x="1417.3" y="473.2" class="st0" width="68.3" height="68.3"/>
	<rect x="1484.7" y="1.2" class="st0" width="68.3" height="68.3"/>
	<rect x="1484.7" y="68.6" class="st0" width="68.3" height="68.3"/>
	<rect x="1484.7" y="136.1" class="st0" width="68.3" height="68.3"/>
	<rect x="1484.7" y="203.5" class="st0" width="68.3" height="68.3"/>
	<rect x="1484.7" y="271" class="st0" width="68.3" height="68.3"/>
	<rect x="1484.7" y="338.4" class="st0" width="68.3" height="68.3"/>
	<rect x="1484.7" y="405.8" class="st0" width="68.3" height="68.3"/>
	<rect x="1484.7" y="473.2" class="st0" width="68.3" height="68.3"/>
	<rect x="1552.2" y="1.2" class="st0" width="68.3" height="68.3"/>
	<rect x="1552.2" y="68.6" class="st0" width="68.3" height="68.3"/>
	<rect x="1552.2" y="136.1" class="st0" width="68.3" height="68.3"/>
	<rect x="1552.2" y="203.5" class="st0" width="68.3" height="68.3"/>
	<rect x="1552.2" y="271" class="st0" width="68.3" height="68.3"/>
	<rect x="1552.2" y="338.4" class="st0" width="68.3" height="68.3"/>
	<rect x="1552.2" y="405.8" class="st0" width="68.3" height="68.3"/>
	<rect x="1552.2" y="473.2" class="st0" width="68.3" height="68.3"/>
	<rect x="1619.6" y="1.2" class="st0" width="68.3" height="68.3"/>
	<rect x="1619.6" y="68.6" class="st0" width="68.3" height="68.3"/>
	<rect x="1619.6" y="136.1" class="st0" width="68.3" height="68.3"/>
	<rect x="1619.6" y="203.5" class="st0" width="68.3" height="68.3"/>
	<rect x="1619.6" y="271" class="st0" width="68.3" height="68.3"/>
	<rect x="1619.6" y="338.4" class="st0" width="68.3" height="68.3"/>
	<rect x="1619.6" y="405.8" class="st0" width="68.3" height="68.3"/>
	<rect x="1619.6" y="473.2" class="st0" width="68.3" height="68.3"/>
	<rect x="1687" y="1.2" class="st0" width="68.3" height="68.3"/>
	<rect x="1687" y="68.6" class="st0" width="68.3" height="68.3"/>
	<rect x="1687" y="136.1" class="st0" width="68.3" height="68.3"/>
	<rect x="1687" y="203.5" class="st0" width="68.3" height="68.3"/>
	<rect x="1687" y="271" class="st0" width="68.3" height="68.3"/>
	<rect x="1687" y="338.4" class="st0" width="68.3" height="68.3"/>
	<rect x="1687" y="405.8" class="st0" width="68.3" height="68.3"/>
	<rect x="1687" y="473.2" class="st0" width="68.3" height="68.3"/>
</g>
<path class="st1" d="M313.8,185.2c27,26.2,5.4,46.9,5.4,46.9l-40.4-31.2L260.1,222l-17.3-15.3l17.7-20l10.5-11.9
	c7.5-8.5,20.4-9.4,29-1.9c0,0,0,0,0,0l0,0L313.8,185.2z"/>
<path class="st2" d="M263.2,210.2l13.7-15.5c0.6-0.7,1.7-0.8,2.5-0.2l37.1,28.7c0.8,0.6,1.9,0.5,2.5-0.3c0.1-0.1,0.1-0.2,0.2-0.3
	c1.7-3.2,2.5-6.8,2.6-10.4c0-7.6-4-15.3-11.9-23l-10.3-9.1c-8.1-7.1-20.4-6.3-27.5,1.8l0,0l-19.3,21.9c-0.7,0.7-0.6,1.9,0.1,2.6
	c0.1,0.1,0.2,0.2,0.4,0.2l7.7,4C261.7,210.9,262.6,210.8,263.2,210.2z"/>
<polygon class="st1" points="253.5,235.5 283.5,262 310.3,242 272.9,213.4 "/>
<path class="st2" d="M297,238.7l-20.3-15.5c-1.7-1.3-4.1-1.1-5.5,0.6l-7.2,8.2c-1.5,1.6-1.4,4.2,0.3,5.6l0.1,0.1l17.1,15.1
	c1.4,1.3,3.6,1.4,5.1,0.2l10.4-7.8c1.8-1.3,2.2-3.8,0.9-5.6c0,0,0,0,0,0C297.6,239.3,297.3,239,297,238.7z"/>
<polygon class="st1" points="137.3,343.9 155.9,358.1 276.5,241.6 260.5,229.4 "/>
<path class="st3" d="M241,204.8L224.3,223l-36,41.2l-58.6,66.9c-1.4,1.5-0.1,4.8,2.8,7.3l0.7,0.5c2.9,2.5,6.5,3.3,7.9,1.8l65.5-66.1
	l36.3-36.6l5.1-5.5c1.2-1.3,3.9-1,6.6,0.7l32.1,20.2c2.7,1.7,5.4,2,6.6,0.7l4.5-4.8c1.3-1.4,0.3-4.4-2.3-6.8l-20.6-19.5
	c-0.6-0.6-1.3-1.1-2-1.6l-25.3-15.9C244.9,203.8,242.2,203.5,241,204.8z"/>
<path class="st2" d="M280.8,241.7c-1.4,1.6-1.3,4.1,0.4,5.5c1.6,1.4,4.1,1.3,5.5-0.4c1.4-1.6,1.3-4.1-0.4-5.5
	C284.7,239.9,282.3,240.1,280.8,241.7z"/>
<path class="st2" d="M264.2,225.7c-1.4,1.6-1.3,4.1,0.4,5.5c1.6,1.4,4.1,1.3,5.5-0.4c1.4-1.6,1.3-4.1-0.4-5.5
	C268.1,223.9,265.7,224.1,264.2,225.7z"/>
<rect x="189.5" y="165.8" transform="matrix(0.6477 -0.7619 0.7619 0.6477 -137.4595 251.7974)" class="st4" width="28.2" height="217.4"/>
<path class="st5" d="M137,242.9c-7.4,3.3-9.4,11.3-7.8,22.2l-33.9-28.8c12.4-1.9,18.9-5.9,20.7-11.3L137,242.9z"/>
<path class="st6" d="M129.1,265.1l-19.8,23.3c-13.8-6.3-25.5-16.2-33.9-28.8l19.8-23.3L129.1,265.1z"/>
<rect x="87" y="240.1" transform="matrix(0.6477 -0.7619 0.7619 0.6477 -163.8243 170.3608)" class="st3" width="30.6" height="44.5"/>
<path class="st5" d="M131.6,191.3l17.1,14.5l6.6-7.8c15.4-18.1,41.3-27.6,60.6-16.6l7.2,4.1l3.3-4.1l-7.5-6.4
	c-23.6-20-60-15.9-81.4,9.3L131.6,191.3z"/>
<path class="st3" d="M167.5,222.1l-19.3,22.7c-4.8,5.7-14.2,5.6-21-0.1l-11.6-9.9c-6.7-5.7-8.3-15-3.4-20.7l19.3-22.7
	c4.8-5.7,14.2-5.6,21,0.1l11.6,9.9C170.8,207.2,172.4,216.5,167.5,222.1z"/>
<path class="st5" d="M143.6,241c-2.4,2.9-8.2,2.4-12.2-1.1l-11.6-9.9c-4.1-3.5-5.5-9-3-11.9l19.3-22.7c2.4-2.9,8.2-2.4,12.2,1.1
	l11.7,9.9c4.1,3.5,5.5,9,3,11.9L143.6,241z"/>
<line class="st7" x1="1436.4" y1="189" x2="1434" y2="230.3"/>
<path class="st8" d="M1400.6,135.5h168.8c28.6,0,51.7,23.2,51.7,51.7v168.8c0,28.6-23.2,51.7-51.7,51.7h-168.8
	c-28.6,0-51.7-23.2-51.7-51.7V187.2C1348.9,158.6,1372,135.5,1400.6,135.5z"/>
<path class="st8" d="M1417.1,218.2h94.2c11,0,19.9,8.9,19.9,19.9v23.9h-114.1V218.2z"/>
<rect x="1417.1" y="271.6" class="st9" width="48.5" height="136.1"/>
<path class="st8" d="M1417,184.1h59.6c6,0,10.9,4.8,11,10.8c0,0,0,0,0,0v13.4H1417V184.1L1417,184.1z"/>
<line class="st10" x1="1384.1" y1="183.8" x2="1384.1" y2="186.2"/>
<line class="st11" x1="1384.1" y1="191.1" x2="1384.1" y2="404.3"/>
<line class="st12" x1="1484.9" y1="208.4" x2="1418.1" y2="208.4"/>
<rect x="1484" y="202.6" class="st13" width="1.8" height="11.5"/>
<rect x="1417.2" y="202.6" class="st13" width="1.8" height="11.5"/>
<line class="st14" x1="1530.3" y1="265.7" x2="1417.8" y2="265.7"/>
<rect x="1529.3" y="259.4" class="st13" width="1.9" height="12.6"/>
<rect x="1416.9" y="259.4" class="st13" width="1.9" height="12.6"/>
<line class="st15" x1="1358.1" y1="417.4" x2="1628.4" y2="417.4"/>
<rect x="1356.5" y="413.1" class="st13" width="1.3" height="8.7"/>
<rect x="1626.7" y="413.1" class="st13" width="1.3" height="8.7"/>
<line class="st15" x1="1633.7" y1="408.2" x2="1633.7" y2="137.9"/>
<rect x="1629.3" y="407.5" class="st13" width="8.7" height="1.3"/>
<rect x="1629.3" y="137.3" class="st13" width="8.7" height="1.3"/>
<line class="st10" x1="1384.1" y1="406.7" x2="1384.1" y2="409.2"/>
<rect x="1380.2" y="183.2" class="st16" width="7.9" height="1.2"/>
<rect x="1380.2" y="408.5" class="st16" width="7.9" height="1.2"/>
<line class="st10" x1="1401.2" y1="273.1" x2="1401.2" y2="275.5"/>
<line class="st17" x1="1401.2" y1="280.4" x2="1401.2" y2="404.1"/>
<line class="st10" x1="1401.2" y1="406.6" x2="1401.2" y2="409"/>
<rect x="1397.2" y="272.5" class="st16" width="7.9" height="1.2"/>
<rect x="1397.2" y="408.4" class="st16" width="7.9" height="1.2"/>
<text transform="matrix(1 0 0 1 1465.5768 112.0958)" class="st13 st18 st19">1 : 1.618</text>
<polygon class="st20" points="470.3,261.3 442.2,261.3 442.2,231.6 431.7,231.6 431.7,261.3 402.8,261.3 402.8,271.8 431.7,271.8 
	431.7,299 442.2,299 442.2,271.8 470.3,271.8 "/>
<polygon class="st20" points="877.9,261.3 849.8,261.3 849.8,231.6 839.3,231.6 839.3,261.3 810.4,261.3 810.4,271.8 839.3,271.8 
	839.3,299 849.8,299 849.8,271.8 877.9,271.8 "/>
<path class="st21" d="M1010.6,204.3h66.6v14.6h-52.7V264h44.6v14.5h-44.6v59.8h-13.9L1010.6,204.3z"/>
<rect x="1189.8" y="256.6" class="st20" width="52.2" height="9.4"/>
<rect x="1189.6" y="271.8" class="st20" width="52.2" height="9.4"/>
<rect x="559.3" y="288.3" transform="matrix(0.683 -0.7304 0.7304 0.683 -53.6208 524.1572)" class="st22" width="35.5" height="71.1"/>
<rect x="572.3" y="318.2" transform="matrix(0.683 -0.7304 0.7304 0.683 -58.3753 537.4773)" class="st23" width="35.5" height="35.5"/>
<rect x="566.6" y="246.8" transform="matrix(0.683 -0.7304 0.7304 0.683 13.3174 548.0233)" class="st24" width="143" height="23.7"/>
<rect x="570.9" y="256.8" transform="matrix(0.683 -0.7304 0.7304 0.683 11.7396 552.468)" class="st25" width="143" height="11.9"/>
<rect x="577.4" y="263.5" transform="matrix(0.683 -0.7304 0.7304 0.683 -40.2942 528.9064)" class="st26" width="23.7" height="94.8"/>
<rect x="594.7" y="303.4" transform="matrix(0.683 -0.7304 0.7304 0.683 -46.6248 546.6822)" class="st27" width="23.7" height="47.4"/>
<rect x="673.1" y="166.6" transform="matrix(0.683 -0.7304 0.7304 0.683 71.3788 568.7156)" class="st22" width="35.5" height="71.1"/>
<rect x="686.1" y="196.5" transform="matrix(0.683 -0.7304 0.7304 0.683 66.6274 582.0429)" class="st23" width="35.5" height="35.5"/>
<rect x="666.9" y="167.7" transform="matrix(0.683 -0.7304 0.7304 0.683 58.0491 563.959)" class="st26" width="23.7" height="94.8"/>
<rect x="684.2" y="207.6" transform="matrix(0.683 -0.7304 0.7304 0.683 51.7153 581.7276)" class="st27" width="23.7" height="47.4"/>
</svg>
