<svg xmlns="http://www.w3.org/2000/svg" xmlns:xlink="http://www.w3.org/1999/xlink" viewBox="0 0 141.85 141.99"><defs><style>.cls-1{fill:#b1ff6a;}.cls-2{fill:url(#未命名漸層_66);}.cls-3{fill:#fff;}</style><linearGradient id="未命名漸層_66" x1="1.53" y1="70.89" x2="135.6" y2="70.89" gradientUnits="userSpaceOnUse"><stop offset="0.01" stop-color="#1eddcf"/><stop offset="0.65" stop-color="#15a7a6"/><stop offset="1" stop-color="#118f94"/></linearGradient></defs><title>logo資產 5</title><g id="圖層_2" data-name="圖層 2"><g id="background"><line class="cls-1" x1="45.6" y1="27.86" x2="44.33" y2="49.4"/><rect class="cls-2" width="141.85" height="141.85" rx="26.94"/><path class="cls-3" d="M35.56,43.06H84.62A10.37,10.37,0,0,1,95,53.43V65.86a0,0,0,0,1,0,0H35.56a0,0,0,0,1,0,0V43.06A0,0,0,0,1,35.56,43.06Z"/><rect class="cls-3" x="12.64" y="93.84" width="71.06" height="25.25" transform="translate(-58.29 154.63) rotate(-90)"/><path class="cls-3" d="M35.46,25.33h31A5.68,5.68,0,0,1,72.19,31v7a0,0,0,0,1,0,0H35.46a0,0,0,0,1,0,0V25.33A0,0,0,0,1,35.46,25.33Z"/></g></g></svg>